<svg preserveAspectRatio="none" overflow="visible" style="display: block;" width="14" height="14" viewBox="0 0 14 14" fill="none" xmlns="http://www.w3.org/2000/svg">
<g id="solar:bag-3-bold">
<path id="Vector" fill-rule="evenodd" clip-rule="evenodd" d="M3.25142 2.73669C2.7654 3.14005 2.63738 3.82281 2.38135 5.18832L1.94385 7.52168C1.58382 9.44183 1.4038 10.4019 1.92864 11.0343C2.45347 11.6667 3.43028 11.6667 5.3839 11.6667H8.61607C10.5697 11.6667 11.5465 11.6667 12.0713 11.0343C12.5962 10.4019 12.4162 9.44183 12.0562 7.52168L11.6187 5.18832C11.3626 3.82281 11.2346 3.14005 10.7486 2.73669C10.2625 2.33333 9.56789 2.33333 8.17857 2.33333H5.8214C4.43209 2.33333 3.73743 2.33333 3.25142 2.73669ZM5.7623 4.52087C5.94271 5.03123 6.42944 5.39583 7.00023 5.39583C7.57103 5.39583 8.05776 5.03123 8.23813 4.52087C8.31868 4.29306 8.56864 4.17365 8.79643 4.25417C9.02423 4.3347 9.14363 4.58465 9.06313 4.81246C8.76307 5.66149 7.95334 6.27083 7.00023 6.27083C6.04707 6.27083 5.23739 5.66149 4.93731 4.81246C4.85679 4.58465 4.97619 4.3347 5.204 4.25417C5.43182 4.17365 5.68177 4.29306 5.7623 4.52087Z" fill="white"/>
</g>
</svg>
