<svg preserveAspectRatio="none" overflow="visible" style="display: block;" width="30.8879" height="23.3847" viewBox="0 0 30.8879 23.3847" fill="none" xmlns="http://www.w3.org/2000/svg">
<g id="Vector_2">
<path id="Vector" d="M30.872 11.077C30.8932 11.4869 30.8932 11.8977 30.872 12.3077H23.9987C24.0246 12.1065 24.0369 11.901 24.0369 11.6923H14.1978C14.1977 11.8981 14.2105 12.1035 14.2359 12.3077H7.53612C7.52997 12.2056 7.52628 12.1034 7.52382 12H2.63564L2.63195 11.8462H0V11.5385H2.63257L2.63503 11.3847H7.52382C7.52628 11.2819 7.53059 11.1791 7.53551 11.077H30.872Z" fill="#2F2352"/>
<path id="Vector_3" d="M23.8825 10.4616H30.8234C30.7803 10.0443 30.7145 9.63388 30.6284 9.23081H7.77964C7.7575 9.33296 7.73659 9.43573 7.71814 9.5385H2.82935L2.80106 9.69604H0V10.0037H2.75248L2.73157 10.1539H7.62037C7.60684 10.256 7.59454 10.3588 7.58347 10.4616H14.354C14.4081 10.2505 14.4764 10.0456 14.5569 9.84619H23.6796C23.7608 10.0466 23.8285 10.2522 23.8825 10.4616Z" fill="#2F2352"/>
<path id="Vector_4" d="M22.9583 8.61542H30.479C30.3646 8.19573 30.2275 7.78404 30.0688 7.38404H8.33862C8.29804 7.48619 8.25868 7.58835 8.22178 7.69173H3.33299L3.28502 7.8265H0V8.13481H3.18233L3.12821 8.30773H8.01701C7.98626 8.40988 7.95674 8.51265 7.92907 8.61542H15.2776C15.4547 8.39388 15.6515 8.18835 15.8637 8.00004H22.3722C22.5848 8.18798 22.7809 8.39382 22.9583 8.61542Z" fill="#2F2352"/>
<path id="Vector_5" d="M8.60305 6.76927H29.8044C29.6076 6.34465 29.385 5.93355 29.1403 5.53848H9.26718C9.20446 5.64001 9.14296 5.74278 9.08332 5.84617H4.19452L4.11642 5.98404H0V6.29173H3.94978L3.86307 6.46158H8.75125C8.70021 6.56373 8.65101 6.66588 8.60305 6.76927Z" fill="#2F2352"/>
<path id="Vector_6" d="M30.824 12.9231H7.58347C7.59442 13.0258 7.60672 13.1284 7.62037 13.2308H2.73157C2.73804 13.2792 2.74481 13.3277 2.75187 13.376H0V13.6837H2.80045C2.8097 13.7379 2.81933 13.7921 2.82935 13.8462H7.71753C7.73665 13.949 7.75713 14.0516 7.77902 14.1539H14.8558C14.742 13.957 14.6418 13.7514 14.5557 13.5385H23.6802C23.5941 13.7514 23.4933 13.957 23.3795 14.1539H30.6284C30.7145 13.7514 30.7803 13.3403 30.824 12.9231Z" fill="#2F2352"/>
<path id="Vector_7" d="M30.4784 14.7693H7.92845C7.95674 14.8727 7.98626 14.9748 8.01701 15.077H3.12883C3.14485 15.1302 3.16125 15.1833 3.17802 15.2363H0V15.544H3.2801L3.33299 15.6923H8.22178C8.25929 15.7954 8.29828 15.898 8.33862 16H16.7344C16.4228 15.8269 16.1309 15.6206 15.8637 15.3847H22.3722C22.105 15.6206 21.8131 15.8269 21.5015 16H30.0688C30.2275 15.6 30.3646 15.1896 30.4784 14.7693Z" fill="#2F2352"/>
<path id="Vector_8" d="M29.8044 16.6154H8.60305V16.616C8.65113 16.7193 8.70076 16.8219 8.75186 16.9237H3.86307L3.93871 17.0714H0V17.3791H4.10413C4.13364 17.4327 4.16378 17.4856 4.19452 17.5385H9.0827C9.1426 17.642 9.20409 17.7445 9.26718 17.8462H29.1403C29.3861 17.4496 29.6078 17.0386 29.8044 16.6154Z" fill="#2F2352"/>
<path id="Vector_9" d="M10.6828 19.6923C10.5881 19.5914 10.4952 19.4893 10.4048 19.3847H5.51603C5.47237 19.3348 5.42933 19.285 5.3869 19.2339H0V18.9262H5.13538L5.01363 18.7693H9.90242C9.82494 18.6683 9.74991 18.5656 9.67612 18.4616H28.7313C28.4239 18.8941 28.0876 19.3053 27.7247 19.6923H10.6828Z" fill="#2F2352"/>
<path id="Vector_10" d="M12.8996 21.5385C12.7459 21.44 12.594 21.3373 12.4446 21.2308H7.55641C7.49123 21.1847 7.42605 21.1373 7.36209 21.0893H0V20.7816H6.96545C6.89781 20.7274 6.83078 20.672 6.76437 20.6154H11.6532C11.5351 20.5151 11.4189 20.4123 11.3051 20.3077H27.103C26.6075 20.7629 26.0738 21.1747 25.5078 21.5385H12.8996Z" fill="#2F2352"/>
<path id="Vector_11" d="M19.2034 23.3847C18.3653 23.3847 17.548 23.2967 16.7596 23.1287C15.9713 23.2967 15.1534 23.3847 14.3152 23.3847C13.1272 23.3847 11.9803 23.2074 10.8999 22.8776H0V22.5699H10.0205C9.93255 22.5348 9.84462 22.4985 9.75729 22.4616H14.6461C14.4204 22.3662 14.1984 22.2634 13.9795 22.1539H24.4274C22.8556 22.9416 21.0815 23.3847 19.2034 23.3847Z" fill="#2F2352"/>
<path id="Vector_12" d="M28.7313 4.92309H9.67612C9.74991 4.81971 9.82494 4.71694 9.90242 4.6154H5.01424C5.06036 4.55448 5.1071 4.49417 5.15445 4.43448H0V4.12678H5.4078L5.51603 4.00001H10.4042C10.4952 3.8954 10.5881 3.79324 10.6828 3.69232H27.7247C28.0876 4.07935 28.4239 4.49055 28.7313 4.92309Z" fill="#2F2352"/>
<path id="Vector_13" d="M27.1024 3.07694H11.3045C11.4189 2.97232 11.5351 2.86955 11.6532 2.76924H6.76498C6.82894 2.71509 6.89351 2.66155 6.95869 2.60863H0V2.30094H7.35471C7.42113 2.2511 7.48871 2.2025 7.55635 2.1539L12.4446 2.15386C12.594 2.04801 12.7459 1.94524 12.8996 1.84617H25.5078C26.0736 2.20993 26.6071 2.62171 27.1024 3.07694Z" fill="#2F2352"/>
<path id="Vector_14" d="M24.428 1.23078H13.9801C14.1988 1.12123 14.4209 1.01861 14.6461 0.92309H0V0.615398H10.5641C11.7417 0.216629 13.003 1.32597e-05 14.3152 1.32597e-05C15.1367 -0.000335663 15.9561 0.0856748 16.7596 0.256629C17.548 0.0886286 18.3653 1.32597e-05 19.204 1.32597e-05C21.0174 -0.0027252 22.8063 0.418742 24.428 1.23078Z" fill="#2F2352"/>
</g>
</svg>
